<svg xmlns="http://www.w3.org/2000/svg" version="1.1" xmlns:xlink="http://www.w3.org/1999/xlink" width="1500" height="348" viewBox="0 0 1500 348"><svg xml:space="preserve" width="1500" height="348" data-version="2" data-id="lg_Mo3bJXzQ2nHZUFxVwK" viewBox="0 0 614 348" x="0" y="0"><rect width="100%" height="100%" fill="transparent"></rect><path fill="#fff" d="M130.374 3.359C63.963 8.055 10.907 61.111 6.211 127.522c-.367 5.183 3.724 9.595 8.92 9.595H131.03a8.941 8.941 0 0 0 8.941-8.941V12.278c0-5.195-4.412-9.284-9.594-8.919Zm164.384 124.946C290.062 61.894 237.006 8.838 170.595 4.142c-5.183-.367-9.595 3.724-9.595 8.92V128.96a8.941 8.941 0 0 0 8.941 8.941H285.84c5.195 0 9.284-4.412 8.919-9.594Zm-12.653 27.226c-66.411 4.696-119.467 57.752-124.163 124.163-.367 5.183 3.724 9.595 8.92 9.595H282.76a8.941 8.941 0 0 0 8.941-8.941V164.45c0-5.195-4.412-9.284-9.594-8.919ZM6.21 167.387c4.696 66.411 57.752 119.467 124.163 124.163 5.183.367 9.595-3.724 9.595-8.92V166.732a8.941 8.941 0 0 0-8.941-8.941H15.129c-5.195 0-9.284 4.412-8.919 9.594Zm308.2 118.505 45.15-116.2h20.17l46.31 116.2h-21l-10.7-27.72h-49.22l-10.29 27.72Zm35.52-43.74h39.43l-20.09-50.63Z"></path><rect width="111.63" height="116.2" x="-55.81" y="-58.1" fill="none" rx="0" ry="0" transform="translate(370.73 228.3)"></rect><path fill="#fff" d="M442.89 285.892v-116.2h18.59v116.2Z"></path><rect width="18.59" height="116.2" x="-9.29" y="-58.1" fill="none" rx="0" ry="0" transform="translate(452.69 228.3)"></rect><path fill="#fff" d="m591.71 292.362-12.12-14.11q-7.3 4.73-16.02 7.43-8.71 2.7-18.34 2.7-12.78 0-23.82-4.57-11.04-4.56-19.3-12.74-8.26-8.17-12.9-19.25-4.65-11.08-4.65-24.03 0-12.95 4.61-23.99 4.6-11.04 12.9-19.25 8.3-8.22 19.47-12.79 11.16-4.56 24.19-4.56 12.86 0 23.95 4.61 11.08 4.6 19.42 12.82 8.34 8.22 13.03 19.17 4.69 10.96 4.69 23.74 0 12.2-4.28 22.87-4.27 10.66-11.74 18.63l11.87 13.61Zm-45.98-20.25q6.39 0 12.2-1.74t10.71-4.98l-17.6-20.34 10.38-9.13 17.68 20.17q4.39-5.39 6.97-12.57 2.57-7.18 2.57-15.73 0-13.28-5.73-23.12-5.72-9.83-15.48-15.27-9.75-5.43-21.7-5.43-8.96 0-16.72 3.11-7.77 3.11-13.53 8.84-5.77 5.72-9.01 13.82-3.24 8.09-3.24 18.05 0 13.28 5.65 23.24 5.64 9.96 15.27 15.52 9.63 5.56 21.58 5.56"></path><rect width="122.26" height="125.16" x="-61.13" y="-62.58" fill="none" rx="0" ry="0" transform="translate(546.19 230.28)"></rect><path fill="#fff" d="m39.31 337.142 7.89-20.3h3.52l8.09 20.3h-3.67l-1.87-4.84h-8.59l-1.8 4.84Zm6.21-7.64h6.88l-3.5-8.84Z"></path><rect width="19.5" height="20.3" x="-9.75" y="-10.15" fill="none" rx="0" ry="0" transform="translate(49.56 327.5)"></rect><path fill="#fff" d="M61.76 337.142v-20.3H65v20.3Z"></path><rect width="3.24" height="20.3" x="-1.62" y="-10.15" fill="none" rx="0" ry="0" transform="translate(63.88 327.5)"></rect><path fill="#fff" d="M77.4 337.142v-20.3h7.35q2.16 0 3.82.75 1.66.75 2.61 2.15.94 1.39.94 3.35 0 2.02-.87 3.4-.87 1.39-2.53 2.1-1.66.72-4.04.72h-4.03v7.83Zm3.25-10.61h4.07q1.98 0 3.06-.84 1.09-.83 1.09-2.53 0-1.68-1.11-2.58-1.12-.9-3.01-.9h-4.1Z"></path><rect width="14.72" height="20.3" x="-7.36" y="-10.15" fill="none" rx="0" ry="0" transform="translate(85.26 327.5)"></rect><path fill="#fff" d="M95.35 337.142v-14.35h3.19v1.98q.82-1.34 1.98-1.89 1.16-.54 2.49-.54.43 0 .83.04.39.04.75.13l-.42 3.29q-.44-.13-.89-.2-.44-.07-.89-.07-1.67 0-2.76 1.02-1.09 1.02-1.09 2.78v7.81Z"></path><rect width="9.24" height="14.8" x="-4.62" y="-7.4" fill="none" rx="0" ry="0" transform="translate(100.47 330.24)"></rect><path fill="#fff" d="M113.51 337.582q-2.25 0-4.01-1.04-1.76-1.04-2.76-2.77-1-1.73-1-3.81 0-1.53.57-2.9.57-1.37 1.62-2.43 1.05-1.06 2.47-1.67 1.43-.61 3.12-.61 2.25 0 4.01 1.04 1.76 1.04 2.76 2.77 1 1.73 1 3.8 0 1.53-.57 2.9-.57 1.38-1.62 2.44-1.04 1.06-2.46 1.67-1.42.61-3.13.61m0-2.83q1.33 0 2.37-.59 1.03-.58 1.63-1.66.59-1.07.59-2.54 0-1.46-.59-2.54-.6-1.08-1.63-1.66-1.04-.58-2.37-.58-1.34 0-2.37.58-1.04.58-1.63 1.66-.58 1.08-.58 2.54 0 1.47.59 2.54.59 1.08 1.63 1.66 1.04.59 2.36.59"></path><rect width="15.55" height="15.23" x="-7.78" y="-7.62" fill="none" rx="0" ry="0" transform="translate(114.02 330.47)"></rect><path fill="#fff" d="M124.5 337.142v-14.35h3.19v1.97q.58-.84 1.33-1.37.76-.53 1.6-.78.84-.26 1.71-.26 1.75 0 2.92.77t1.65 1.97q1.07-1.56 2.49-2.15 1.42-.59 2.86-.59 1.98 0 3.17.79 1.19.78 1.72 2.01.53 1.23.53 2.54v9.45h-3.19v-8.52q0-1.5-.82-2.42-.82-.92-2.39-.92-1.02 0-1.84.45-.81.45-1.28 1.24t-.47 1.82v8.35h-3.19v-8.52q0-1.5-.81-2.42-.82-.92-2.4-.92-1.01 0-1.83.45-.82.45-1.29 1.24-.47.79-.47 1.82v8.35Z"></path><rect width="23.17" height="14.79" x="-11.59" y="-7.39" fill="none" rx="0" ry="0" transform="translate(136.59 330.25)"></rect><path fill="#fff" d="M151.96 343.232v-20.44h2.87v2.01q.86-1.08 2.19-1.77 1.34-.68 3.29-.68 2.11 0 3.74 1 1.63.99 2.54 2.71.92 1.72.92 3.9 0 1.59-.53 2.97-.52 1.38-1.48 2.43-.97 1.04-2.29 1.63-1.33.59-2.94.59-1.68 0-2.96-.61-1.27-.61-2.17-1.64v7.9Zm7.77-8.48q1.34 0 2.37-.59 1.04-.58 1.63-1.66.59-1.07.59-2.54 0-1.46-.6-2.54-.59-1.08-1.63-1.66-1.04-.58-2.36-.58-1.33 0-2.37.58-1.03.58-1.63 1.66-.59 1.08-.59 2.54 0 1.47.59 2.54.6 1.08 1.63 1.66 1.04.59 2.37.59"></path><rect width="15.55" height="20.88" x="-7.78" y="-10.44" fill="none" rx="0" ry="0" transform="translate(160.24 333.3)"></rect><path fill="#fff" d="M176.6 337.582q-2.11 0-3.37-1.22-1.26-1.22-1.26-3.73v-14.03h3.19v4.19h3.99v2.64h-3.99v6.51q0 1.5.57 2.12.58.62 1.62.62.51 0 .96-.12.45-.11.81-.3l.57 2.58q-.63.32-1.43.53-.81.21-1.66.21m-7.78-12.15v-2.64h3.57v2.64Z"></path><rect width="10.87" height="18.98" x="-5.43" y="-9.49" fill="none" rx="0" ry="0" transform="translate(174.75 328.6)"></rect><path fill="#fff" d="M183.02 337.142v-14.35h3.19v14.35Zm1.6-16.92q-.86 0-1.48-.55-.63-.55-.63-1.45 0-.88.63-1.44.62-.56 1.48-.56.85 0 1.47.56.63.56.63 1.44 0 .9-.63 1.45-.62.55-1.47.55"></path><rect width="4.21" height="20.92" x="-2.1" y="-10.46" fill="none" rx="0" ry="0" transform="translate(185.12 327.18)"></rect><path fill="#fff" d="M190.65 337.142v-14.35h3.19v1.82q.9-1.2 2.09-1.73 1.18-.53 2.46-.53 1.97 0 3.26.79 1.29.78 1.92 2.01.63 1.23.63 2.54v9.45h-3.19v-8.47q0-1.53-.92-2.46-.92-.93-2.56-.93-1.07 0-1.9.48-.84.48-1.31 1.33-.48.84-.48 1.98v8.07Z"></path><rect width="13.55" height="14.79" x="-6.78" y="-7.39" fill="none" rx="0" ry="0" transform="translate(197.93 330.25)"></rect><path fill="#fff" d="M214.15 343.672q-1.61 0-2.9-.29-1.29-.28-2.19-.81-.91-.54-1.39-1.3-.48-.75-.48-1.68 0-.74.4-1.39.4-.65 1.19-1.12.79-.47 1.94-.71-.86-.43-1.27-.98-.42-.55-.42-1.26 0-.61.36-1.16.35-.54 1.01-.97.66-.43 1.56-.7.9-.28 1.99-.32l.69 1.39q-.89-.01-1.52.14-.64.15-.98.42-.34.27-.34.65 0 .49.57.71.56.23 1.59.31l2.47.19q1.81.15 3.09.6 1.29.45 1.98 1.26.68.81.68 2.06 0 1.06-.57 1.96-.57.91-1.64 1.58-1.06.66-2.54 1.04t-3.28.38m.32-2.21q2.16 0 3.4-.64 1.24-.65 1.24-1.68 0-.78-.83-1.21-.82-.44-2.52-.56l-2.64-.2q-.93.07-1.6.35-.67.27-1.02.71-.35.43-.35.99 0 .66.52 1.17.52.51 1.5.79.97.28 2.3.28m-.1-8.87q-1.8 0-3.23-.68t-2.25-1.84q-.83-1.16-.83-2.6 0-1.43.84-2.59.83-1.16 2.26-1.85 1.43-.68 3.21-.68t3.2.68q1.42.69 2.26 1.85.83 1.16.83 2.59 0 1.42-.82 2.58-.83 1.16-2.25 1.85-1.42.69-3.22.69m0-2.39q.99 0 1.75-.34.77-.34 1.21-.96.43-.62.43-1.43 0-1.22-.95-1.98t-2.44-.76q-1 0-1.76.35t-1.2.96q-.43.62-.43 1.43 0 1.2.95 1.97.95.76 2.44.76m2.23-4.89-1.19-2.22 7.7-.3-.03 2.64Z"></path><rect width="15.92" height="21.32" x="-7.96" y="-10.66" fill="none" rx="0" ry="0" transform="translate(215.65 333.51)"></rect><path fill="#fff" d="M227.54 337.582q-.93 0-1.61-.6-.67-.59-.67-1.55 0-.65.3-1.14.31-.48.83-.75t1.15-.27q.94 0 1.6.59.66.59.66 1.57 0 .64-.31 1.13-.3.48-.82.75-.51.27-1.13.27"></path><rect width="4.54" height="4.31" x="-2.27" y="-2.15" fill="none" rx="0" ry="0" transform="translate(228.03 335.93)"></rect><path fill="#fff" d="M276.21 337.582q-2.1 0-4.11-.6-2.01-.61-3.38-1.74l1.59-2.48q.73.63 1.69 1.08.96.45 2.05.69 1.09.23 2.18.23 1.98 0 3.21-.75 1.22-.75 1.22-2.2 0-1.09-.83-1.85-.83-.75-3.08-1.39l-2.09-.61q-2.87-.82-4.18-2.19-1.32-1.36-1.32-3.39 0-1.35.55-2.43.54-1.09 1.54-1.89.99-.8 2.34-1.22 1.35-.42 2.96-.42 2.04 0 3.79.6 1.76.59 2.9 1.59l-1.65 2.41q-.62-.57-1.46-.97-.83-.41-1.79-.63-.95-.21-1.94-.21-1.22 0-2.15.35-.94.36-1.46 1.02-.52.67-.52 1.63 0 .69.35 1.22.34.52 1.19.95.85.42 2.34.86l2.21.65q2.81.83 4.12 2.15 1.3 1.33 1.3 3.45 0 1.81-.89 3.18t-2.59 2.14q-1.7.77-4.09.77"></path><rect width="15.06" height="21.16" x="-7.53" y="-10.58" fill="none" rx="0" ry="0" transform="translate(276.75 327.5)"></rect><path fill="#fff" d="M287.39 337.142v-14.35h3.19v14.35Zm1.6-16.92q-.86 0-1.48-.55-.63-.55-.63-1.45 0-.88.63-1.44.62-.56 1.48-.56.85 0 1.48.56.62.56.62 1.44 0 .9-.62 1.45-.63.55-1.48.55"></path><rect width="4.21" height="20.92" x="-2.1" y="-10.46" fill="none" rx="0" ry="0" transform="translate(289.49 327.18)"></rect><path fill="#fff" d="M295.02 337.142v-14.35h3.19v1.97q.58-.84 1.33-1.37.76-.53 1.6-.78.84-.26 1.71-.26 1.75 0 2.92.77t1.65 1.97q1.07-1.56 2.49-2.15 1.42-.59 2.86-.59 1.98 0 3.17.79 1.19.78 1.72 2.01.53 1.23.53 2.54v9.45H315v-8.52q0-1.5-.82-2.42-.82-.92-2.39-.92-1.02 0-1.84.45-.81.45-1.28 1.24t-.47 1.82v8.35h-3.19v-8.52q0-1.5-.81-2.42-.82-.92-2.4-.92-1.01 0-1.83.45-.82.45-1.29 1.24-.47.79-.47 1.82v8.35Z"></path><rect width="23.17" height="14.79" x="-11.59" y="-7.39" fill="none" rx="0" ry="0" transform="translate(307.1 330.25)"></rect><path fill="#fff" d="M322.48 343.232v-20.44h2.87v2.01q.86-1.08 2.19-1.77 1.34-.68 3.29-.68 2.11 0 3.74 1 1.63.99 2.54 2.71.92 1.72.92 3.9 0 1.59-.53 2.97-.52 1.38-1.48 2.43-.97 1.04-2.29 1.63-1.33.59-2.94.59-1.68 0-2.96-.61-1.27-.61-2.17-1.64v7.9Zm7.77-8.48q1.34 0 2.37-.59 1.04-.58 1.63-1.66.59-1.07.59-2.54 0-1.46-.6-2.54-.59-1.08-1.63-1.66-1.04-.58-2.36-.58-1.33 0-2.37.58-1.03.58-1.63 1.66-.59 1.08-.59 2.54 0 1.47.59 2.54.6 1.08 1.63 1.66 1.04.59 2.37.59"></path><rect width="15.55" height="20.88" x="-7.78" y="-10.44" fill="none" rx="0" ry="0" transform="translate(330.75 333.3)"></rect><path fill="#fff" d="M341.23 337.142v-20.88h3.19v20.88Z"></path><rect width="3.19" height="20.88" x="-1.59" y="-10.44" fill="none" rx="0" ry="0" transform="translate(343.32 327.2)"></rect><path fill="#fff" d="M348.86 337.142v-14.35h3.19v14.35Zm1.59-16.92q-.85 0-1.48-.55-.62-.55-.62-1.45 0-.88.62-1.44.63-.56 1.48-.56.86 0 1.48.56t.62 1.44q0 .9-.62 1.45-.62.55-1.48.55"></path><rect width="4.2" height="20.92" x="-2.1" y="-10.46" fill="none" rx="0" ry="0" transform="translate(350.95 327.18)"></rect><path fill="#fff" d="M357.89 337.142v-16.7q0-2.15 1.24-3.38t3.43-1.23q.8 0 1.46.16.66.17 1.22.48l-.59 2.52q-.42-.23-.81-.32-.4-.09-.77-.09-.89 0-1.45.45-.55.45-.55 1.54v2.22h3.77v2.64h-3.77v11.71Zm-2.89-11.71v-2.64h3.31v2.64Zm12.74 11.71v-14.35h3.19v14.35Zm1.59-16.92q-.85 0-1.48-.55-.62-.55-.62-1.45 0-.88.62-1.44.63-.56 1.48-.56.86 0 1.48.56t.62 1.44q0 .9-.62 1.45-.62.55-1.48.55"></path><rect width="16.43" height="21.31" x="-8.21" y="-10.65" fill="none" rx="0" ry="0" transform="translate(363.71 326.99)"></rect><path fill="#fff" d="M381.92 337.582q-2.32 0-4.08-.95-1.75-.95-2.73-2.66-.98-1.71-.98-3.98 0-1.65.57-3.05.56-1.4 1.59-2.43 1.03-1.03 2.42-1.59 1.38-.57 3.02-.57 1.78 0 3.17.63 1.4.63 2.32 1.76.92 1.14 1.3 2.65.39 1.52.12 3.29h-11.45q-.03 1.29.57 2.25.59.96 1.7 1.5 1.11.54 2.62.54 1.21 0 2.35-.37 1.14-.37 2.07-1.1l1.23 2.29q-.69.57-1.68.97t-2.06.61q-1.07.21-2.07.21m-4.54-9.25h8.13q-.04-1.63-1.03-2.56-1-.92-2.82-.92-1.77 0-2.94.92-1.17.93-1.34 2.56"></path><rect width="14.7" height="15.23" x="-7.35" y="-7.62" fill="none" rx="0" ry="0" transform="translate(381.98 330.47)"></rect><path fill="#fff" d="M398.07 337.582q-2.1 0-3.73-1-1.62-.99-2.54-2.71-.92-1.72-.92-3.91 0-1.58.52-2.96.52-1.39 1.49-2.43.96-1.04 2.29-1.63 1.32-.59 2.93-.59 1.96 0 3.4.79 1.43.78 2.39 2.17l-.67.71v-9.76h3.19v20.88h-2.87v-3.45l.46.73q-.78 1.36-2.24 2.26-1.45.9-3.7.9m.58-2.83q1.33 0 2.37-.59 1.04-.58 1.63-1.66.6-1.07.6-2.54 0-1.46-.6-2.54-.59-1.08-1.63-1.66-1.04-.58-2.37-.58t-2.36.58q-1.03.58-1.63 1.66-.59 1.08-.59 2.54 0 1.47.59 2.54.6 1.08 1.63 1.66 1.04.59 2.36.59"></path><rect width="15.54" height="21.32" x="-7.77" y="-10.66" fill="none" rx="0" ry="0" transform="translate(399.15 327.42)"></rect><path fill="#fff" d="M412.54 337.582q-.93 0-1.6-.6-.68-.59-.68-1.55 0-.65.31-1.14.3-.48.83-.75.52-.27 1.14-.27.94 0 1.6.59.66.59.66 1.57 0 .64-.3 1.13-.31.48-.82.75-.52.27-1.14.27"></path><rect width="4.54" height="4.31" x="-2.27" y="-2.15" fill="none" rx="0" ry="0" transform="translate(413.03 335.93)"></rect><path fill="#fff" d="M454.61 337.142v-20.3h7.35q2.16 0 3.82.75 1.66.75 2.6 2.15.94 1.39.94 3.35 0 2.02-.87 3.4-.87 1.39-2.53 2.1-1.66.72-4.04.72h-4.03v7.83Zm3.24-10.61h4.08q1.97 0 3.06-.84 1.08-.83 1.08-2.53 0-1.68-1.11-2.58-1.12-.9-3-.9h-4.11Z"></path><rect width="14.71" height="20.3" x="-7.36" y="-10.15" fill="none" rx="0" ry="0" transform="translate(462.46 327.5)"></rect><path fill="#fff" d="M478.65 337.582q-2.32 0-4.08-.95-1.75-.95-2.73-2.66-.98-1.71-.98-3.98 0-1.65.57-3.05.56-1.4 1.59-2.43 1.03-1.03 2.41-1.59 1.39-.57 3.03-.57 1.78 0 3.17.63 1.4.63 2.32 1.76.92 1.14 1.3 2.65.39 1.52.12 3.29h-11.45q-.03 1.29.56 2.25.6.96 1.71 1.5 1.11.54 2.62.54 1.21 0 2.35-.37 1.14-.37 2.07-1.1l1.23 2.29q-.7.57-1.68.97-.99.4-2.06.61-1.07.21-2.07.21m-4.54-9.25h8.13q-.04-1.63-1.03-2.56-1-.92-2.82-.92-1.77 0-2.94.92-1.17.93-1.34 2.56"></path><rect width="14.7" height="15.23" x="-7.35" y="-7.62" fill="none" rx="0" ry="0" transform="translate(478.71 330.47)"></rect><path fill="#fff" d="M488.69 337.142v-14.35h3.19v1.98q.82-1.34 1.98-1.89 1.16-.54 2.49-.54.44 0 .83.04.39.04.75.13l-.42 3.29q-.43-.13-.88-.2t-.9-.07q-1.67 0-2.76 1.02-1.09 1.02-1.09 2.78v7.81Z"></path><rect width="9.24" height="14.8" x="-4.62" y="-7.4" fill="none" rx="0" ry="0" transform="translate(493.81 330.24)"></rect><path fill="#fff" d="M502.12 337.142v-16.7q0-2.15 1.24-3.38t3.43-1.23q.8 0 1.46.16.66.17 1.22.48l-.59 2.52q-.42-.23-.81-.32-.39-.09-.77-.09-.89 0-1.44.45-.56.45-.56 1.54v2.22h3.77v2.64h-3.77v11.71Zm-2.88-11.71v-2.64h3.3v2.64Z"></path><rect width="10.23" height="21.31" x="-5.12" y="-10.65" fill="none" rx="0" ry="0" transform="translate(504.86 326.99)"></rect><path fill="#fff" d="M518.38 337.582q-2.32 0-4.08-.95-1.75-.95-2.73-2.66-.98-1.71-.98-3.98 0-1.65.57-3.05.56-1.4 1.59-2.43 1.03-1.03 2.41-1.59 1.39-.57 3.03-.57 1.78 0 3.17.63 1.4.63 2.32 1.76.92 1.14 1.3 2.65.39 1.52.12 3.29h-11.45q-.03 1.29.56 2.25.6.96 1.71 1.5 1.11.54 2.62.54 1.21 0 2.35-.37 1.14-.37 2.07-1.1l1.23 2.29q-.7.57-1.68.97-.99.4-2.06.61-1.07.21-2.07.21m-4.54-9.25h8.13q-.04-1.63-1.03-2.56-1-.92-2.82-.92-1.77 0-2.94.92-1.17.93-1.34 2.56"></path><rect width="14.7" height="15.23" x="-7.35" y="-7.62" fill="none" rx="0" ry="0" transform="translate(518.44 330.47)"></rect><path fill="#fff" d="M535.15 337.582q-2.26 0-4.03-1-1.77-.99-2.77-2.71-1.01-1.72-1.01-3.91 0-1.65.59-3.03.6-1.39 1.68-2.42 1.09-1.03 2.56-1.59 1.47-.57 3.2-.57 1.45 0 2.69.39 1.24.38 2.28 1.18l-1.53 2.43q-.67-.59-1.53-.88-.87-.29-1.84-.29-1.51 0-2.59.57-1.09.56-1.69 1.63-.6 1.06-.6 2.57 0 2.25 1.31 3.52 1.31 1.28 3.57 1.28 1.08 0 2.03-.4.96-.4 1.6-1.05l1.52 2.42q-1.15.87-2.55 1.36-1.41.5-2.89.5"></path><rect width="13.25" height="15.23" x="-6.63" y="-7.62" fill="none" rx="0" ry="0" transform="translate(534.47 330.47)"></rect><path fill="#fff" d="M549.55 337.582q-2.1 0-3.36-1.22-1.26-1.22-1.26-3.73v-14.03h3.19v4.19h3.98v2.64h-3.98v6.51q0 1.5.57 2.12.57.62 1.62.62.5 0 .95-.12.45-.11.81-.3l.57 2.58q-.62.32-1.43.53-.8.21-1.66.21m-7.77-12.15v-2.64h3.57v2.64Z"></path><rect width="10.86" height="18.98" x="-5.43" y="-9.49" fill="none" rx="0" ry="0" transform="translate(547.71 328.6)"></rect><path fill="#fff" d="M562.44 337.582q-2.32 0-4.07-.95-1.76-.95-2.74-2.66-.97-1.71-.97-3.98 0-1.65.56-3.05.57-1.4 1.6-2.43 1.03-1.03 2.41-1.59 1.38-.57 3.02-.57 1.79 0 3.18.63 1.39.63 2.31 1.76.92 1.14 1.31 2.65.38 1.52.12 3.29h-11.46q-.02 1.29.57 2.25t1.7 1.5q1.11.54 2.62.54 1.22 0 2.36-.37t2.06-1.1l1.24 2.29q-.7.57-1.69.97-.98.4-2.05.61-1.08.21-2.08.21m-4.54-9.25h8.14q-.05-1.63-1.04-2.56-.99-.92-2.82-.92-1.77 0-2.94.92-1.16.93-1.34 2.56"></path><rect width="14.69" height="15.23" x="-7.35" y="-7.62" fill="none" rx="0" ry="0" transform="translate(562.5 330.47)"></rect><path fill="#fff" d="M578.59 337.582q-2.1 0-3.72-1-1.63-.99-2.55-2.71-.92-1.72-.92-3.91 0-1.58.52-2.96.53-1.39 1.49-2.43.97-1.04 2.29-1.63 1.33-.59 2.94-.59 1.96 0 3.39.79 1.44.78 2.39 2.17l-.66.71v-9.76h3.19v20.88h-2.87v-3.45l.46.73q-.78 1.36-2.24 2.26-1.46.9-3.71.9m.58-2.83q1.34 0 2.38-.59 1.03-.58 1.63-1.66.59-1.07.59-2.54 0-1.46-.59-2.54-.6-1.08-1.63-1.66-1.04-.58-2.38-.58-1.33 0-2.36.58-1.03.58-1.62 1.66-.6 1.08-.6 2.54 0 1.47.6 2.54.59 1.08 1.63 1.66 1.04.59 2.35.59"></path><rect width="15.55" height="21.32" x="-7.78" y="-10.66" fill="none" rx="0" ry="0" transform="translate(579.67 327.42)"></rect><path fill="#fff" d="M593.07 337.582q-.93 0-1.61-.6-.67-.59-.67-1.55 0-.65.3-1.14.31-.48.83-.75t1.15-.27q.94 0 1.6.59.66.59.66 1.57 0 .64-.31 1.13-.3.48-.82.75-.51.27-1.13.27"></path><rect width="4.54" height="4.31" x="-2.27" y="-2.15" fill="none" rx="0" ry="0" transform="translate(593.56 335.93)"></rect></svg></svg>